<mxfile host="app.diagrams.net" modified="2022-03-10T23:00:07.404Z" agent="5.0 (X11)" etag="qMnflxrq1l0PoCGa2SU_" version="17.1.1" type="github">
  <diagram id="lwW48XCTaLF5BFniCIoH" name="Page-1">
    <mxGraphModel dx="1495" dy="697" grid="1" gridSize="10" guides="1" tooltips="1" connect="1" arrows="1" fold="1" page="1" pageScale="1" pageWidth="827" pageHeight="1169" math="0" shadow="0">
      <root>
        <mxCell id="0" />
        <mxCell id="1" parent="0" />
        <mxCell id="xRdnOpAp-NZehR1O-J3w-101" value="Network Setup" style="swimlane;startSize=20;horizontal=1;childLayout=flowLayout;flowOrientation=north;resizable=0;interRankCellSpacing=50;containerType=tree;fontColor=default;" vertex="1" parent="1">
          <mxGeometry width="1030" height="980" as="geometry" />
        </mxCell>
        <mxCell id="xRdnOpAp-NZehR1O-J3w-94" value="Host" style="rounded=0;whiteSpace=wrap;html=1;fontColor=default;" vertex="1" parent="xRdnOpAp-NZehR1O-J3w-101">
          <mxGeometry x="455" y="40" width="120" height="60" as="geometry" />
        </mxCell>
        <mxCell id="xRdnOpAp-NZehR1O-J3w-22" value="ens4f1" style="swimlane;fontStyle=0;childLayout=stackLayout;horizontal=1;startSize=30;horizontalStack=0;resizeParent=1;resizeParentMax=0;resizeLast=0;collapsible=1;marginBottom=0;" vertex="1" parent="xRdnOpAp-NZehR1O-J3w-101">
          <mxGeometry x="20" y="150" width="140" height="120" as="geometry" />
        </mxCell>
        <mxCell id="xRdnOpAp-NZehR1O-J3w-23" value="Type: ethernet controller" style="text;strokeColor=none;fillColor=none;align=left;verticalAlign=middle;spacingLeft=4;spacingRight=4;overflow=hidden;points=[[0,0.5],[1,0.5]];portConstraint=eastwest;rotatable=0;" vertex="1" parent="xRdnOpAp-NZehR1O-J3w-22">
          <mxGeometry y="30" width="140" height="30" as="geometry" />
        </mxCell>
        <mxCell id="xRdnOpAp-NZehR1O-J3w-37" value="MTU: 1500" style="text;strokeColor=none;fillColor=none;align=left;verticalAlign=middle;spacingLeft=4;spacingRight=4;overflow=hidden;points=[[0,0.5],[1,0.5]];portConstraint=eastwest;rotatable=0;" vertex="1" parent="xRdnOpAp-NZehR1O-J3w-22">
          <mxGeometry y="60" width="140" height="30" as="geometry" />
        </mxCell>
        <mxCell id="xRdnOpAp-NZehR1O-J3w-24" value="Driver: mlx5_core" style="text;strokeColor=none;fillColor=none;align=left;verticalAlign=middle;spacingLeft=4;spacingRight=4;overflow=hidden;points=[[0,0.5],[1,0.5]];portConstraint=eastwest;rotatable=0;" vertex="1" parent="xRdnOpAp-NZehR1O-J3w-22">
          <mxGeometry y="90" width="140" height="30" as="geometry" />
        </mxCell>
        <mxCell id="xRdnOpAp-NZehR1O-J3w-100" style="edgeStyle=orthogonalEdgeStyle;rounded=0;orthogonalLoop=1;jettySize=auto;html=1;fontColor=default;noEdgeStyle=1;orthogonal=1;" edge="1" parent="xRdnOpAp-NZehR1O-J3w-101" source="xRdnOpAp-NZehR1O-J3w-94" target="xRdnOpAp-NZehR1O-J3w-22">
          <mxGeometry relative="1" as="geometry">
            <Array as="points">
              <mxPoint x="469.1666666666667" y="112" />
              <mxPoint x="90" y="138" />
            </Array>
          </mxGeometry>
        </mxCell>
        <mxCell id="xRdnOpAp-NZehR1O-J3w-19" value="ens4f0" style="swimlane;fontStyle=0;childLayout=stackLayout;horizontal=1;startSize=30;horizontalStack=0;resizeParent=1;resizeParentMax=0;resizeLast=0;collapsible=1;marginBottom=0;" vertex="1" parent="xRdnOpAp-NZehR1O-J3w-101">
          <mxGeometry x="190" y="150" width="140" height="120" as="geometry" />
        </mxCell>
        <mxCell id="xRdnOpAp-NZehR1O-J3w-20" value="Type: ethernet controller" style="text;strokeColor=none;fillColor=none;align=left;verticalAlign=middle;spacingLeft=4;spacingRight=4;overflow=hidden;points=[[0,0.5],[1,0.5]];portConstraint=eastwest;rotatable=0;" vertex="1" parent="xRdnOpAp-NZehR1O-J3w-19">
          <mxGeometry y="30" width="140" height="30" as="geometry" />
        </mxCell>
        <mxCell id="xRdnOpAp-NZehR1O-J3w-38" value="MTU: 1500" style="text;strokeColor=none;fillColor=none;align=left;verticalAlign=middle;spacingLeft=4;spacingRight=4;overflow=hidden;points=[[0,0.5],[1,0.5]];portConstraint=eastwest;rotatable=0;" vertex="1" parent="xRdnOpAp-NZehR1O-J3w-19">
          <mxGeometry y="60" width="140" height="30" as="geometry" />
        </mxCell>
        <mxCell id="xRdnOpAp-NZehR1O-J3w-21" value="Driver: mlx5_core" style="text;strokeColor=none;fillColor=none;align=left;verticalAlign=middle;spacingLeft=4;spacingRight=4;overflow=hidden;points=[[0,0.5],[1,0.5]];portConstraint=eastwest;rotatable=0;" vertex="1" parent="xRdnOpAp-NZehR1O-J3w-19">
          <mxGeometry y="90" width="140" height="30" as="geometry" />
        </mxCell>
        <mxCell id="xRdnOpAp-NZehR1O-J3w-99" style="edgeStyle=orthogonalEdgeStyle;rounded=0;orthogonalLoop=1;jettySize=auto;html=1;fontColor=default;noEdgeStyle=1;orthogonal=1;" edge="1" parent="xRdnOpAp-NZehR1O-J3w-101" source="xRdnOpAp-NZehR1O-J3w-94" target="xRdnOpAp-NZehR1O-J3w-19">
          <mxGeometry relative="1" as="geometry">
            <Array as="points">
              <mxPoint x="487.5" y="114" />
              <mxPoint x="260" y="138" />
            </Array>
          </mxGeometry>
        </mxCell>
        <mxCell id="xRdnOpAp-NZehR1O-J3w-28" value="ens10f1" style="swimlane;fontStyle=0;childLayout=stackLayout;horizontal=1;startSize=30;horizontalStack=0;resizeParent=1;resizeParentMax=0;resizeLast=0;collapsible=1;marginBottom=0;" vertex="1" parent="xRdnOpAp-NZehR1O-J3w-101">
          <mxGeometry x="360" y="150" width="140" height="120" as="geometry" />
        </mxCell>
        <mxCell id="xRdnOpAp-NZehR1O-J3w-29" value="Type: ethernet controller" style="text;strokeColor=none;fillColor=none;align=left;verticalAlign=middle;spacingLeft=4;spacingRight=4;overflow=hidden;points=[[0,0.5],[1,0.5]];portConstraint=eastwest;rotatable=0;" vertex="1" parent="xRdnOpAp-NZehR1O-J3w-28">
          <mxGeometry y="30" width="140" height="30" as="geometry" />
        </mxCell>
        <mxCell id="xRdnOpAp-NZehR1O-J3w-32" value="MTU: 9000" style="text;strokeColor=none;fillColor=none;align=left;verticalAlign=middle;spacingLeft=4;spacingRight=4;overflow=hidden;points=[[0,0.5],[1,0.5]];portConstraint=eastwest;rotatable=0;" vertex="1" parent="xRdnOpAp-NZehR1O-J3w-28">
          <mxGeometry y="60" width="140" height="30" as="geometry" />
        </mxCell>
        <mxCell id="xRdnOpAp-NZehR1O-J3w-30" value="Driver: qede" style="text;strokeColor=none;fillColor=none;align=left;verticalAlign=middle;spacingLeft=4;spacingRight=4;overflow=hidden;points=[[0,0.5],[1,0.5]];portConstraint=eastwest;rotatable=0;" vertex="1" parent="xRdnOpAp-NZehR1O-J3w-28">
          <mxGeometry y="90" width="140" height="30" as="geometry" />
        </mxCell>
        <mxCell id="xRdnOpAp-NZehR1O-J3w-98" style="edgeStyle=orthogonalEdgeStyle;rounded=0;orthogonalLoop=1;jettySize=auto;html=1;fontColor=default;noEdgeStyle=1;orthogonal=1;" edge="1" parent="xRdnOpAp-NZehR1O-J3w-101" source="xRdnOpAp-NZehR1O-J3w-94" target="xRdnOpAp-NZehR1O-J3w-28">
          <mxGeometry relative="1" as="geometry">
            <Array as="points">
              <mxPoint x="505.8333333333333" y="116" />
              <mxPoint x="430" y="138" />
            </Array>
          </mxGeometry>
        </mxCell>
        <mxCell id="xRdnOpAp-NZehR1O-J3w-25" value="ens10f0" style="swimlane;fontStyle=0;childLayout=stackLayout;horizontal=1;startSize=30;horizontalStack=0;resizeParent=1;resizeParentMax=0;resizeLast=0;collapsible=1;marginBottom=0;" vertex="1" parent="xRdnOpAp-NZehR1O-J3w-101">
          <mxGeometry x="530" y="150" width="140" height="120" as="geometry" />
        </mxCell>
        <mxCell id="xRdnOpAp-NZehR1O-J3w-26" value="Type: ethernet controller" style="text;strokeColor=none;fillColor=none;align=left;verticalAlign=middle;spacingLeft=4;spacingRight=4;overflow=hidden;points=[[0,0.5],[1,0.5]];portConstraint=eastwest;rotatable=0;" vertex="1" parent="xRdnOpAp-NZehR1O-J3w-25">
          <mxGeometry y="30" width="140" height="30" as="geometry" />
        </mxCell>
        <mxCell id="xRdnOpAp-NZehR1O-J3w-31" value="MTU: 9000" style="text;strokeColor=none;fillColor=none;align=left;verticalAlign=middle;spacingLeft=4;spacingRight=4;overflow=hidden;points=[[0,0.5],[1,0.5]];portConstraint=eastwest;rotatable=0;" vertex="1" parent="xRdnOpAp-NZehR1O-J3w-25">
          <mxGeometry y="60" width="140" height="30" as="geometry" />
        </mxCell>
        <mxCell id="xRdnOpAp-NZehR1O-J3w-27" value="Driver: qede" style="text;strokeColor=none;fillColor=none;align=left;verticalAlign=middle;spacingLeft=4;spacingRight=4;overflow=hidden;points=[[0,0.5],[1,0.5]];portConstraint=eastwest;rotatable=0;" vertex="1" parent="xRdnOpAp-NZehR1O-J3w-25">
          <mxGeometry y="90" width="140" height="30" as="geometry" />
        </mxCell>
        <mxCell id="xRdnOpAp-NZehR1O-J3w-97" style="edgeStyle=orthogonalEdgeStyle;rounded=0;orthogonalLoop=1;jettySize=auto;html=1;fontColor=default;noEdgeStyle=1;orthogonal=1;" edge="1" parent="xRdnOpAp-NZehR1O-J3w-101" source="xRdnOpAp-NZehR1O-J3w-94" target="xRdnOpAp-NZehR1O-J3w-25">
          <mxGeometry relative="1" as="geometry">
            <Array as="points">
              <mxPoint x="524.1666666666666" y="116" />
              <mxPoint x="600" y="138" />
            </Array>
          </mxGeometry>
        </mxCell>
        <mxCell id="xRdnOpAp-NZehR1O-J3w-16" value="ens1f1" style="swimlane;fontStyle=0;childLayout=stackLayout;horizontal=1;startSize=30;horizontalStack=0;resizeParent=1;resizeParentMax=0;resizeLast=0;collapsible=1;marginBottom=0;" vertex="1" parent="xRdnOpAp-NZehR1O-J3w-101">
          <mxGeometry x="700" y="150" width="140" height="120" as="geometry" />
        </mxCell>
        <mxCell id="xRdnOpAp-NZehR1O-J3w-17" value="Type: ethernet controller" style="text;strokeColor=none;fillColor=none;align=left;verticalAlign=middle;spacingLeft=4;spacingRight=4;overflow=hidden;points=[[0,0.5],[1,0.5]];portConstraint=eastwest;rotatable=0;" vertex="1" parent="xRdnOpAp-NZehR1O-J3w-16">
          <mxGeometry y="30" width="140" height="30" as="geometry" />
        </mxCell>
        <mxCell id="xRdnOpAp-NZehR1O-J3w-39" value="MTU: 1500" style="text;strokeColor=none;fillColor=none;align=left;verticalAlign=middle;spacingLeft=4;spacingRight=4;overflow=hidden;points=[[0,0.5],[1,0.5]];portConstraint=eastwest;rotatable=0;" vertex="1" parent="xRdnOpAp-NZehR1O-J3w-16">
          <mxGeometry y="60" width="140" height="30" as="geometry" />
        </mxCell>
        <mxCell id="xRdnOpAp-NZehR1O-J3w-18" value="Driver: mlx5_core" style="text;strokeColor=none;fillColor=none;align=left;verticalAlign=middle;spacingLeft=4;spacingRight=4;overflow=hidden;points=[[0,0.5],[1,0.5]];portConstraint=eastwest;rotatable=0;" vertex="1" parent="xRdnOpAp-NZehR1O-J3w-16">
          <mxGeometry y="90" width="140" height="30" as="geometry" />
        </mxCell>
        <mxCell id="xRdnOpAp-NZehR1O-J3w-96" style="edgeStyle=orthogonalEdgeStyle;rounded=0;orthogonalLoop=1;jettySize=auto;html=1;fontColor=default;noEdgeStyle=1;orthogonal=1;" edge="1" parent="xRdnOpAp-NZehR1O-J3w-101" source="xRdnOpAp-NZehR1O-J3w-94" target="xRdnOpAp-NZehR1O-J3w-16">
          <mxGeometry relative="1" as="geometry">
            <Array as="points">
              <mxPoint x="542.5" y="114" />
              <mxPoint x="770" y="138" />
            </Array>
          </mxGeometry>
        </mxCell>
        <mxCell id="xRdnOpAp-NZehR1O-J3w-12" value="ens1f0" style="swimlane;fontStyle=0;childLayout=stackLayout;horizontal=1;startSize=30;horizontalStack=0;resizeParent=1;resizeParentMax=0;resizeLast=0;collapsible=1;marginBottom=0;" vertex="1" parent="xRdnOpAp-NZehR1O-J3w-101">
          <mxGeometry x="870" y="150" width="140" height="120" as="geometry">
            <mxRectangle x="20" y="40" width="70" height="30" as="alternateBounds" />
          </mxGeometry>
        </mxCell>
        <mxCell id="xRdnOpAp-NZehR1O-J3w-13" value="Type: ethernet controller" style="text;strokeColor=none;fillColor=none;align=left;verticalAlign=middle;spacingLeft=4;spacingRight=4;overflow=hidden;points=[[0,0.5],[1,0.5]];portConstraint=eastwest;rotatable=0;" vertex="1" parent="xRdnOpAp-NZehR1O-J3w-12">
          <mxGeometry y="30" width="140" height="30" as="geometry" />
        </mxCell>
        <mxCell id="xRdnOpAp-NZehR1O-J3w-40" value="MTU: 1500" style="text;strokeColor=none;fillColor=none;align=left;verticalAlign=middle;spacingLeft=4;spacingRight=4;overflow=hidden;points=[[0,0.5],[1,0.5]];portConstraint=eastwest;rotatable=0;" vertex="1" parent="xRdnOpAp-NZehR1O-J3w-12">
          <mxGeometry y="60" width="140" height="30" as="geometry" />
        </mxCell>
        <mxCell id="xRdnOpAp-NZehR1O-J3w-14" value="Driver: mlx5_core" style="text;strokeColor=none;fillColor=none;align=left;verticalAlign=middle;spacingLeft=4;spacingRight=4;overflow=hidden;points=[[0,0.5],[1,0.5]];portConstraint=eastwest;rotatable=0;" vertex="1" parent="xRdnOpAp-NZehR1O-J3w-12">
          <mxGeometry y="90" width="140" height="30" as="geometry" />
        </mxCell>
        <mxCell id="xRdnOpAp-NZehR1O-J3w-95" style="edgeStyle=orthogonalEdgeStyle;rounded=0;orthogonalLoop=1;jettySize=auto;html=1;fontColor=default;noEdgeStyle=1;orthogonal=1;" edge="1" parent="xRdnOpAp-NZehR1O-J3w-101" source="xRdnOpAp-NZehR1O-J3w-94" target="xRdnOpAp-NZehR1O-J3w-12">
          <mxGeometry relative="1" as="geometry">
            <Array as="points">
              <mxPoint x="560.8333333333334" y="112" />
              <mxPoint x="940" y="138" />
            </Array>
          </mxGeometry>
        </mxCell>
        <mxCell id="xRdnOpAp-NZehR1O-J3w-51" value="bond_mgmt" style="swimlane;fontStyle=0;childLayout=stackLayout;horizontal=1;startSize=30;horizontalStack=0;resizeParent=1;resizeParentMax=0;resizeLast=0;collapsible=1;marginBottom=0;" vertex="1" parent="xRdnOpAp-NZehR1O-J3w-101">
          <mxGeometry x="320" y="320" width="180" height="210" as="geometry">
            <mxRectangle x="20" y="40" width="70" height="30" as="alternateBounds" />
          </mxGeometry>
        </mxCell>
        <mxCell id="xRdnOpAp-NZehR1O-J3w-52" value="Type: bond" style="text;strokeColor=none;fillColor=none;align=left;verticalAlign=middle;spacingLeft=4;spacingRight=4;overflow=hidden;points=[[0,0.5],[1,0.5]];portConstraint=eastwest;rotatable=0;" vertex="1" parent="xRdnOpAp-NZehR1O-J3w-51">
          <mxGeometry y="30" width="180" height="30" as="geometry" />
        </mxCell>
        <mxCell id="xRdnOpAp-NZehR1O-J3w-53" value="MTU: 9000" style="text;strokeColor=none;fillColor=none;align=left;verticalAlign=middle;spacingLeft=4;spacingRight=4;overflow=hidden;points=[[0,0.5],[1,0.5]];portConstraint=eastwest;rotatable=0;" vertex="1" parent="xRdnOpAp-NZehR1O-J3w-51">
          <mxGeometry y="60" width="180" height="30" as="geometry" />
        </mxCell>
        <mxCell id="xRdnOpAp-NZehR1O-J3w-54" value="options:" style="swimlane;fontStyle=0;childLayout=stackLayout;horizontal=1;startSize=30;horizontalStack=0;resizeParent=1;resizeParentMax=0;resizeLast=0;collapsible=1;marginBottom=0;align=left;" vertex="1" parent="xRdnOpAp-NZehR1O-J3w-51">
          <mxGeometry y="90" width="180" height="120" as="geometry" />
        </mxCell>
        <mxCell id="xRdnOpAp-NZehR1O-J3w-55" value="lacp-rate: fast" style="text;strokeColor=none;fillColor=none;align=left;verticalAlign=middle;spacingLeft=14;spacingRight=4;overflow=hidden;points=[[0,0.5],[1,0.5]];portConstraint=eastwest;rotatable=0;" vertex="1" parent="xRdnOpAp-NZehR1O-J3w-54">
          <mxGeometry y="30" width="180" height="30" as="geometry" />
        </mxCell>
        <mxCell id="xRdnOpAp-NZehR1O-J3w-56" value="mode: 802.3ad" style="text;strokeColor=none;fillColor=none;align=left;verticalAlign=middle;spacingLeft=14;spacingRight=4;overflow=hidden;points=[[0,0.5],[1,0.5]];portConstraint=eastwest;rotatable=0;" vertex="1" parent="xRdnOpAp-NZehR1O-J3w-54">
          <mxGeometry y="60" width="180" height="30" as="geometry" />
        </mxCell>
        <mxCell id="xRdnOpAp-NZehR1O-J3w-57" value="transmit-hash-policy: layer3+4" style="text;strokeColor=none;fillColor=none;align=left;verticalAlign=middle;spacingLeft=14;spacingRight=4;overflow=hidden;points=[[0,0.5],[1,0.5]];portConstraint=eastwest;rotatable=0;" vertex="1" parent="xRdnOpAp-NZehR1O-J3w-54">
          <mxGeometry y="90" width="180" height="30" as="geometry" />
        </mxCell>
        <mxCell id="xRdnOpAp-NZehR1O-J3w-59" style="edgeStyle=orthogonalEdgeStyle;rounded=0;orthogonalLoop=1;jettySize=auto;html=1;noEdgeStyle=1;orthogonal=1;" edge="1" parent="xRdnOpAp-NZehR1O-J3w-101" source="xRdnOpAp-NZehR1O-J3w-28" target="xRdnOpAp-NZehR1O-J3w-51">
          <mxGeometry relative="1" as="geometry">
            <Array as="points">
              <mxPoint x="430" y="282" />
              <mxPoint x="367.5" y="308" />
            </Array>
          </mxGeometry>
        </mxCell>
        <mxCell id="xRdnOpAp-NZehR1O-J3w-58" style="edgeStyle=orthogonalEdgeStyle;rounded=0;orthogonalLoop=1;jettySize=auto;html=1;noEdgeStyle=1;orthogonal=1;" edge="1" parent="xRdnOpAp-NZehR1O-J3w-101" source="xRdnOpAp-NZehR1O-J3w-25" target="xRdnOpAp-NZehR1O-J3w-51">
          <mxGeometry relative="1" as="geometry">
            <Array as="points">
              <mxPoint x="600" y="282" />
              <mxPoint x="452.5" y="308" />
            </Array>
          </mxGeometry>
        </mxCell>
        <mxCell id="xRdnOpAp-NZehR1O-J3w-41" value="bond_xfer" style="swimlane;fontStyle=0;childLayout=stackLayout;horizontal=1;startSize=30;horizontalStack=0;resizeParent=1;resizeParentMax=0;resizeLast=0;collapsible=1;marginBottom=0;align=center;" vertex="1" parent="xRdnOpAp-NZehR1O-J3w-101">
          <mxGeometry x="763.603871361073" y="320" width="180" height="210" as="geometry">
            <mxRectangle x="20" y="40" width="70" height="30" as="alternateBounds" />
          </mxGeometry>
        </mxCell>
        <mxCell id="xRdnOpAp-NZehR1O-J3w-42" value="Type: bond" style="text;strokeColor=none;fillColor=none;align=left;verticalAlign=middle;spacingLeft=4;spacingRight=4;overflow=hidden;points=[[0,0.5],[1,0.5]];portConstraint=eastwest;rotatable=0;" vertex="1" parent="xRdnOpAp-NZehR1O-J3w-41">
          <mxGeometry y="30" width="180" height="30" as="geometry" />
        </mxCell>
        <mxCell id="xRdnOpAp-NZehR1O-J3w-44" value="MTU: 1500" style="text;strokeColor=none;fillColor=none;align=left;verticalAlign=middle;spacingLeft=4;spacingRight=4;overflow=hidden;points=[[0,0.5],[1,0.5]];portConstraint=eastwest;rotatable=0;" vertex="1" parent="xRdnOpAp-NZehR1O-J3w-41">
          <mxGeometry y="60" width="180" height="30" as="geometry" />
        </mxCell>
        <mxCell id="xRdnOpAp-NZehR1O-J3w-47" value="options:" style="swimlane;fontStyle=0;childLayout=stackLayout;horizontal=1;startSize=30;horizontalStack=0;resizeParent=1;resizeParentMax=0;resizeLast=0;collapsible=1;marginBottom=0;align=left;" vertex="1" parent="xRdnOpAp-NZehR1O-J3w-41">
          <mxGeometry y="90" width="180" height="120" as="geometry" />
        </mxCell>
        <mxCell id="xRdnOpAp-NZehR1O-J3w-48" value="lacp-rate: fast" style="text;strokeColor=none;fillColor=none;align=left;verticalAlign=middle;spacingLeft=14;spacingRight=4;overflow=hidden;points=[[0,0.5],[1,0.5]];portConstraint=eastwest;rotatable=0;" vertex="1" parent="xRdnOpAp-NZehR1O-J3w-47">
          <mxGeometry y="30" width="180" height="30" as="geometry" />
        </mxCell>
        <mxCell id="xRdnOpAp-NZehR1O-J3w-49" value="mode: 802.3ad" style="text;strokeColor=none;fillColor=none;align=left;verticalAlign=middle;spacingLeft=14;spacingRight=4;overflow=hidden;points=[[0,0.5],[1,0.5]];portConstraint=eastwest;rotatable=0;" vertex="1" parent="xRdnOpAp-NZehR1O-J3w-47">
          <mxGeometry y="60" width="180" height="30" as="geometry" />
        </mxCell>
        <mxCell id="xRdnOpAp-NZehR1O-J3w-50" value="transmit-hash-policy: layer3+4" style="text;strokeColor=none;fillColor=none;align=left;verticalAlign=middle;spacingLeft=14;spacingRight=4;overflow=hidden;points=[[0,0.5],[1,0.5]];portConstraint=eastwest;rotatable=0;" vertex="1" parent="xRdnOpAp-NZehR1O-J3w-47">
          <mxGeometry y="90" width="180" height="30" as="geometry" />
        </mxCell>
        <mxCell id="xRdnOpAp-NZehR1O-J3w-46" style="edgeStyle=orthogonalEdgeStyle;rounded=0;orthogonalLoop=1;jettySize=auto;html=1;noEdgeStyle=1;orthogonal=1;" edge="1" parent="xRdnOpAp-NZehR1O-J3w-101" source="xRdnOpAp-NZehR1O-J3w-16" target="xRdnOpAp-NZehR1O-J3w-41">
          <mxGeometry relative="1" as="geometry">
            <Array as="points">
              <mxPoint x="770" y="282" />
              <mxPoint x="811.103871361073" y="308" />
            </Array>
          </mxGeometry>
        </mxCell>
        <mxCell id="xRdnOpAp-NZehR1O-J3w-45" value="" style="edgeStyle=orthogonalEdgeStyle;rounded=0;orthogonalLoop=1;jettySize=auto;html=1;noEdgeStyle=1;orthogonal=1;" edge="1" parent="xRdnOpAp-NZehR1O-J3w-101" source="xRdnOpAp-NZehR1O-J3w-12" target="xRdnOpAp-NZehR1O-J3w-41">
          <mxGeometry relative="1" as="geometry">
            <Array as="points">
              <mxPoint x="940" y="282" />
              <mxPoint x="896.103871361073" y="308" />
            </Array>
          </mxGeometry>
        </mxCell>
        <mxCell id="xRdnOpAp-NZehR1O-J3w-68" value="br_mgmt" style="swimlane;fontStyle=0;childLayout=stackLayout;horizontal=1;startSize=30;horizontalStack=0;resizeParent=1;resizeParentMax=0;resizeLast=0;collapsible=1;marginBottom=0;align=center;" vertex="1" parent="xRdnOpAp-NZehR1O-J3w-101">
          <mxGeometry x="320" y="595" width="180" height="150" as="geometry">
            <mxRectangle x="20" y="40" width="70" height="30" as="alternateBounds" />
          </mxGeometry>
        </mxCell>
        <mxCell id="xRdnOpAp-NZehR1O-J3w-69" value="Type: bridge" style="text;strokeColor=none;fillColor=none;align=left;verticalAlign=middle;spacingLeft=4;spacingRight=4;overflow=hidden;points=[[0,0.5],[1,0.5]];portConstraint=eastwest;rotatable=0;" vertex="1" parent="xRdnOpAp-NZehR1O-J3w-68">
          <mxGeometry y="30" width="180" height="30" as="geometry" />
        </mxCell>
        <mxCell id="xRdnOpAp-NZehR1O-J3w-70" value="MTU: 9000" style="text;strokeColor=none;fillColor=none;align=left;verticalAlign=middle;spacingLeft=4;spacingRight=4;overflow=hidden;points=[[0,0.5],[1,0.5]];portConstraint=eastwest;rotatable=0;" vertex="1" parent="xRdnOpAp-NZehR1O-J3w-68">
          <mxGeometry y="60" width="180" height="30" as="geometry" />
        </mxCell>
        <mxCell id="xRdnOpAp-NZehR1O-J3w-71" value="Network" style="swimlane;fontStyle=0;childLayout=stackLayout;horizontal=1;startSize=30;horizontalStack=0;resizeParent=1;resizeParentMax=0;resizeLast=0;collapsible=1;marginBottom=0;align=left;" vertex="1" parent="xRdnOpAp-NZehR1O-J3w-68">
          <mxGeometry y="90" width="180" height="60" as="geometry" />
        </mxCell>
        <mxCell id="xRdnOpAp-NZehR1O-J3w-72" value="address: 10.74.20.15/24" style="text;strokeColor=none;fillColor=none;align=left;verticalAlign=middle;spacingLeft=14;spacingRight=4;overflow=hidden;points=[[0,0.5],[1,0.5]];portConstraint=eastwest;rotatable=0;" vertex="1" parent="xRdnOpAp-NZehR1O-J3w-71">
          <mxGeometry y="30" width="180" height="30" as="geometry" />
        </mxCell>
        <mxCell id="xRdnOpAp-NZehR1O-J3w-74" style="edgeStyle=orthogonalEdgeStyle;rounded=0;orthogonalLoop=1;jettySize=auto;html=1;noEdgeStyle=1;orthogonal=1;" edge="1" parent="xRdnOpAp-NZehR1O-J3w-101" source="xRdnOpAp-NZehR1O-J3w-51" target="xRdnOpAp-NZehR1O-J3w-68">
          <mxGeometry relative="1" as="geometry">
            <Array as="points">
              <mxPoint x="410" y="542" />
              <mxPoint x="410" y="568" />
            </Array>
          </mxGeometry>
        </mxCell>
        <mxCell id="xRdnOpAp-NZehR1O-J3w-60" value="br_xfer" style="swimlane;fontStyle=0;childLayout=stackLayout;horizontal=1;startSize=30;horizontalStack=0;resizeParent=1;resizeParentMax=0;resizeLast=0;collapsible=1;marginBottom=0;align=center;" vertex="1" parent="xRdnOpAp-NZehR1O-J3w-101">
          <mxGeometry x="762.2077427221459" y="580" width="180" height="180" as="geometry">
            <mxRectangle x="20" y="40" width="70" height="30" as="alternateBounds" />
          </mxGeometry>
        </mxCell>
        <mxCell id="xRdnOpAp-NZehR1O-J3w-61" value="Type: bridge" style="text;strokeColor=none;fillColor=none;align=left;verticalAlign=middle;spacingLeft=4;spacingRight=4;overflow=hidden;points=[[0,0.5],[1,0.5]];portConstraint=eastwest;rotatable=0;" vertex="1" parent="xRdnOpAp-NZehR1O-J3w-60">
          <mxGeometry y="30" width="180" height="30" as="geometry" />
        </mxCell>
        <mxCell id="xRdnOpAp-NZehR1O-J3w-62" value="MTU: 1500" style="text;strokeColor=none;fillColor=none;align=left;verticalAlign=middle;spacingLeft=4;spacingRight=4;overflow=hidden;points=[[0,0.5],[1,0.5]];portConstraint=eastwest;rotatable=0;" vertex="1" parent="xRdnOpAp-NZehR1O-J3w-60">
          <mxGeometry y="60" width="180" height="30" as="geometry" />
        </mxCell>
        <mxCell id="xRdnOpAp-NZehR1O-J3w-63" value="Network" style="swimlane;fontStyle=0;childLayout=stackLayout;horizontal=1;startSize=30;horizontalStack=0;resizeParent=1;resizeParentMax=0;resizeLast=0;collapsible=1;marginBottom=0;align=left;" vertex="1" parent="xRdnOpAp-NZehR1O-J3w-60">
          <mxGeometry y="90" width="180" height="90" as="geometry" />
        </mxCell>
        <mxCell id="xRdnOpAp-NZehR1O-J3w-67" value="address: 10.74.0.15/24" style="text;strokeColor=none;fillColor=none;align=left;verticalAlign=middle;spacingLeft=14;spacingRight=4;overflow=hidden;points=[[0,0.5],[1,0.5]];portConstraint=eastwest;rotatable=0;" vertex="1" parent="xRdnOpAp-NZehR1O-J3w-63">
          <mxGeometry y="30" width="180" height="30" as="geometry" />
        </mxCell>
        <mxCell id="xRdnOpAp-NZehR1O-J3w-64" value="gateway: 10.74.0.1/24" style="text;strokeColor=none;fillColor=none;align=left;verticalAlign=middle;spacingLeft=14;spacingRight=4;overflow=hidden;points=[[0,0.5],[1,0.5]];portConstraint=eastwest;rotatable=0;" vertex="1" parent="xRdnOpAp-NZehR1O-J3w-63">
          <mxGeometry y="60" width="180" height="30" as="geometry" />
        </mxCell>
        <mxCell id="xRdnOpAp-NZehR1O-J3w-75" style="edgeStyle=orthogonalEdgeStyle;rounded=0;orthogonalLoop=1;jettySize=auto;html=1;noEdgeStyle=1;orthogonal=1;" edge="1" parent="xRdnOpAp-NZehR1O-J3w-101" source="xRdnOpAp-NZehR1O-J3w-41" target="xRdnOpAp-NZehR1O-J3w-60">
          <mxGeometry relative="1" as="geometry">
            <Array as="points">
              <mxPoint x="853.603871361073" y="542" />
              <mxPoint x="852.2077427221459" y="568" />
            </Array>
          </mxGeometry>
        </mxCell>
        <mxCell id="xRdnOpAp-NZehR1O-J3w-81" value="vlan104" style="swimlane;fontStyle=0;childLayout=stackLayout;horizontal=1;startSize=30;horizontalStack=0;resizeParent=1;resizeParentMax=0;resizeLast=0;collapsible=1;marginBottom=0;align=center;" vertex="1" parent="xRdnOpAp-NZehR1O-J3w-101">
          <mxGeometry x="215" y="810" width="180" height="150" as="geometry">
            <mxRectangle x="20" y="40" width="70" height="30" as="alternateBounds" />
          </mxGeometry>
        </mxCell>
        <mxCell id="xRdnOpAp-NZehR1O-J3w-82" value="Type: vlan" style="text;strokeColor=none;fillColor=none;align=left;verticalAlign=middle;spacingLeft=4;spacingRight=4;overflow=hidden;points=[[0,0.5],[1,0.5]];portConstraint=eastwest;rotatable=0;" vertex="1" parent="xRdnOpAp-NZehR1O-J3w-81">
          <mxGeometry y="30" width="180" height="30" as="geometry" />
        </mxCell>
        <mxCell id="xRdnOpAp-NZehR1O-J3w-83" value="ID: 104" style="text;strokeColor=none;fillColor=none;align=left;verticalAlign=middle;spacingLeft=4;spacingRight=4;overflow=hidden;points=[[0,0.5],[1,0.5]];portConstraint=eastwest;rotatable=0;" vertex="1" parent="xRdnOpAp-NZehR1O-J3w-81">
          <mxGeometry y="60" width="180" height="30" as="geometry" />
        </mxCell>
        <mxCell id="xRdnOpAp-NZehR1O-J3w-84" value="Network" style="swimlane;fontStyle=0;childLayout=stackLayout;horizontal=1;startSize=30;horizontalStack=0;resizeParent=1;resizeParentMax=0;resizeLast=0;collapsible=1;marginBottom=0;align=left;" vertex="1" parent="xRdnOpAp-NZehR1O-J3w-81">
          <mxGeometry y="90" width="180" height="60" as="geometry" />
        </mxCell>
        <mxCell id="xRdnOpAp-NZehR1O-J3w-85" value="address: 10.74.22.15/24" style="text;strokeColor=none;fillColor=none;align=left;verticalAlign=middle;spacingLeft=14;spacingRight=4;overflow=hidden;points=[[0,0.5],[1,0.5]];portConstraint=eastwest;rotatable=0;" vertex="1" parent="xRdnOpAp-NZehR1O-J3w-84">
          <mxGeometry y="30" width="180" height="30" as="geometry" />
        </mxCell>
        <mxCell id="xRdnOpAp-NZehR1O-J3w-87" style="edgeStyle=orthogonalEdgeStyle;rounded=0;orthogonalLoop=1;jettySize=auto;html=1;noEdgeStyle=1;orthogonal=1;" edge="1" parent="xRdnOpAp-NZehR1O-J3w-101" source="xRdnOpAp-NZehR1O-J3w-68" target="xRdnOpAp-NZehR1O-J3w-81">
          <mxGeometry relative="1" as="geometry">
            <Array as="points">
              <mxPoint x="367.5" y="772" />
              <mxPoint x="305" y="798" />
            </Array>
          </mxGeometry>
        </mxCell>
        <mxCell id="xRdnOpAp-NZehR1O-J3w-76" value="vlan103" style="swimlane;fontStyle=0;childLayout=stackLayout;horizontal=1;startSize=30;horizontalStack=0;resizeParent=1;resizeParentMax=0;resizeLast=0;collapsible=1;marginBottom=0;align=center;" vertex="1" parent="xRdnOpAp-NZehR1O-J3w-101">
          <mxGeometry x="425" y="810" width="180" height="150" as="geometry">
            <mxRectangle x="20" y="40" width="70" height="30" as="alternateBounds" />
          </mxGeometry>
        </mxCell>
        <mxCell id="xRdnOpAp-NZehR1O-J3w-77" value="Type: vlan" style="text;strokeColor=none;fillColor=none;align=left;verticalAlign=middle;spacingLeft=4;spacingRight=4;overflow=hidden;points=[[0,0.5],[1,0.5]];portConstraint=eastwest;rotatable=0;" vertex="1" parent="xRdnOpAp-NZehR1O-J3w-76">
          <mxGeometry y="30" width="180" height="30" as="geometry" />
        </mxCell>
        <mxCell id="xRdnOpAp-NZehR1O-J3w-78" value="ID: 103" style="text;strokeColor=none;fillColor=none;align=left;verticalAlign=middle;spacingLeft=4;spacingRight=4;overflow=hidden;points=[[0,0.5],[1,0.5]];portConstraint=eastwest;rotatable=0;" vertex="1" parent="xRdnOpAp-NZehR1O-J3w-76">
          <mxGeometry y="60" width="180" height="30" as="geometry" />
        </mxCell>
        <mxCell id="xRdnOpAp-NZehR1O-J3w-79" value="Network" style="swimlane;fontStyle=0;childLayout=stackLayout;horizontal=1;startSize=30;horizontalStack=0;resizeParent=1;resizeParentMax=0;resizeLast=0;collapsible=1;marginBottom=0;align=left;" vertex="1" parent="xRdnOpAp-NZehR1O-J3w-76">
          <mxGeometry y="90" width="180" height="60" as="geometry" />
        </mxCell>
        <mxCell id="xRdnOpAp-NZehR1O-J3w-80" value="address: 10.74.21.15/24" style="text;strokeColor=none;fillColor=none;align=left;verticalAlign=middle;spacingLeft=14;spacingRight=4;overflow=hidden;points=[[0,0.5],[1,0.5]];portConstraint=eastwest;rotatable=0;" vertex="1" parent="xRdnOpAp-NZehR1O-J3w-79">
          <mxGeometry y="30" width="180" height="30" as="geometry" />
        </mxCell>
        <mxCell id="xRdnOpAp-NZehR1O-J3w-86" style="edgeStyle=orthogonalEdgeStyle;rounded=0;orthogonalLoop=1;jettySize=auto;html=1;noEdgeStyle=1;orthogonal=1;" edge="1" parent="xRdnOpAp-NZehR1O-J3w-101" source="xRdnOpAp-NZehR1O-J3w-68" target="xRdnOpAp-NZehR1O-J3w-76">
          <mxGeometry relative="1" as="geometry">
            <Array as="points">
              <mxPoint x="452.5" y="772" />
              <mxPoint x="515" y="798" />
            </Array>
          </mxGeometry>
        </mxCell>
        <mxCell id="xRdnOpAp-NZehR1O-J3w-88" value="vrrp100" style="swimlane;fontStyle=0;childLayout=stackLayout;horizontal=1;startSize=30;horizontalStack=0;resizeParent=1;resizeParentMax=0;resizeLast=0;collapsible=1;marginBottom=0;align=center;" vertex="1" parent="xRdnOpAp-NZehR1O-J3w-101">
          <mxGeometry x="762.2077427221459" y="840" width="180" height="90" as="geometry">
            <mxRectangle x="20" y="40" width="70" height="30" as="alternateBounds" />
          </mxGeometry>
        </mxCell>
        <mxCell id="xRdnOpAp-NZehR1O-J3w-89" value="Type: macvlan" style="text;strokeColor=none;fillColor=none;align=left;verticalAlign=middle;spacingLeft=4;spacingRight=4;overflow=hidden;points=[[0,0.5],[1,0.5]];portConstraint=eastwest;rotatable=0;" vertex="1" parent="xRdnOpAp-NZehR1O-J3w-88">
          <mxGeometry y="30" width="180" height="30" as="geometry" />
        </mxCell>
        <mxCell id="xRdnOpAp-NZehR1O-J3w-90" value="Address: 00:00:5e:00:01:64" style="text;strokeColor=none;fillColor=none;align=left;verticalAlign=middle;spacingLeft=4;spacingRight=4;overflow=hidden;points=[[0,0.5],[1,0.5]];portConstraint=eastwest;rotatable=0;fontColor=default;" vertex="1" parent="xRdnOpAp-NZehR1O-J3w-88">
          <mxGeometry y="60" width="180" height="30" as="geometry" />
        </mxCell>
        <mxCell id="xRdnOpAp-NZehR1O-J3w-93" style="edgeStyle=orthogonalEdgeStyle;rounded=0;orthogonalLoop=1;jettySize=auto;html=1;fontColor=default;noEdgeStyle=1;orthogonal=1;" edge="1" parent="xRdnOpAp-NZehR1O-J3w-101" source="xRdnOpAp-NZehR1O-J3w-60" target="xRdnOpAp-NZehR1O-J3w-88">
          <mxGeometry relative="1" as="geometry">
            <Array as="points">
              <mxPoint x="852.2077427221459" y="772" />
              <mxPoint x="852.2077427221459" y="798" />
            </Array>
          </mxGeometry>
        </mxCell>
      </root>
    </mxGraphModel>
  </diagram>
</mxfile>
